<svg
      width="19"
      height="19"
      viewBox="0 0 19 19"
      fill="none"
      xmlns="http://www.w3.org/2000/svg"
     
    >
      <defs>
        <linearGradient
          id="paint0_linear_1_848"
          x1="9.35486"
          y1="1.87558"
          x2="9.35486"
          y2="17.7465"
          gradientUnits="userSpaceOnUse"
        >
          <stop offset="0.0001" stop-color="#B55DD9" />
          <stop offset="1" stop-color="#5054C9" />
        </linearGradient>
      </defs>
      <path
        d="M16.2885 8.027C16.0214 7.74784 15.745 7.46018 15.6409 7.20723C15.5445 6.97555 15.5389 6.59152 15.5332 6.21955C15.5226 5.52803 15.5112 4.7444 14.9664 4.19954C14.4215 3.65469 13.6379 3.64335 12.9464 3.63272C12.5744 3.62705 12.1904 3.62139 11.9587 3.52503C11.7065 3.42087 11.4181 3.14455 11.1389 2.87743C10.65 2.40768 10.0946 1.87558 9.35486 1.87558C8.61516 1.87558 8.06038 2.40768 7.57079 2.87743C7.29163 3.14455 7.00397 3.42087 6.75103 3.52503C6.52076 3.62139 6.13532 3.62705 5.76334 3.63272C5.07182 3.64335 4.28819 3.65469 3.74334 4.19954C3.19848 4.7444 3.19069 5.52803 3.17652 6.21955C3.17085 6.59152 3.16518 6.97555 3.06882 7.20723C2.96467 7.45947 2.68834 7.74784 2.42123 8.027C1.95148 8.51588 1.41937 9.07136 1.41937 9.81106C1.41937 10.5508 1.95148 11.1055 2.42123 11.5951C2.68834 11.8743 2.96467 12.162 3.06882 12.4149C3.16518 12.6466 3.17085 13.0306 3.17652 13.4026C3.18714 14.0941 3.19848 14.8777 3.74334 15.4226C4.28819 15.9674 5.07182 15.9788 5.76334 15.9894C6.13532 15.9951 6.51934 16.0007 6.75103 16.0971C7.00326 16.2013 7.29163 16.4776 7.57079 16.7447C8.05967 17.2144 8.61516 17.7465 9.35486 17.7465C10.0946 17.7465 10.6493 17.2144 11.1389 16.7447C11.4181 16.4776 11.7057 16.2013 11.9587 16.0971C12.1904 16.0007 12.5744 15.9951 12.9464 15.9894C13.6379 15.9788 14.4215 15.9674 14.9664 15.4226C15.5112 14.8777 15.5226 14.0941 15.5332 13.4026C15.5389 13.0306 15.5445 12.6466 15.6409 12.4149C15.745 12.1627 16.0214 11.8743 16.2885 11.5951C16.7582 11.1062 17.2903 10.5508 17.2903 9.81106C17.2903 9.07136 16.7582 8.51659 16.2885 8.027Z"
        fill="url(#paint0_linear_1_848)"
      />
      <path
        d="M7.8847 6.72119L7.02438 6.72119L7.02438 11.6596C7.34592 11.6307 7.62862 11.5576 7.8847 11.4526L7.8847 6.72119Z"
        fill="white"
      />
      <path
        d="M9.90096 9.91387L9.90096 6.7189L9.04063 6.71889L9.04063 10.6961C9.17803 10.5756 9.31326 10.4505 9.44922 10.324C9.59668 10.1868 9.74558 10.0488 9.90024 9.91387H9.90096Z"
        fill="white"
      />
      <path
        d="M7.10603 11.8878C7.27599 12.082 7.50285 12.2203 7.75378 12.2543C7.84715 12.2671 7.94271 12.2671 8.03754 12.2528C9.43152 12.0457 10.2339 10.2661 11.8307 9.81653V9.04879C11.8052 9.05408 11.7811 9.06012 11.7585 9.06541C9.67224 9.58455 9.18569 11.6097 7.01923 11.788L7.10603 11.8878Z"
        fill="white"
      />
      <path
        d="M8.71399 13.0372C9.10518 13.257 9.56363 13.3277 9.99284 13.2076C9.99576 13.2068 9.99869 13.206 10.0016 13.2053C10.5442 13.0493 10.9032 12.526 11.347 12.1806C11.4991 12.0521 11.6556 11.9319 11.8223 11.8246C11.8288 11.8208 11.8347 11.817 11.8413 11.8132V10.9788C11.3397 11.2009 10.9214 11.6078 10.5186 11.9752L10.5083 11.9851C9.90583 12.529 9.45542 13.0798 8.59115 12.9687L8.71473 13.0379L8.71399 13.0372Z"
        fill="white"
      />
      <path
        d="M9.57849 12.6222C10.3573 12.0545 10.9605 11.2496 11.8462 10.8429V9.9617C11.8359 9.96475 11.8257 9.9678 11.8162 9.97085C11.0498 10.2318 10.4949 10.7216 9.92984 11.2481L9.91959 11.2572C9.38452 11.7486 8.75721 12.346 8.01425 12.449C7.95204 12.4589 7.85249 12.4635 7.76758 12.4741C8.0611 12.7015 8.41391 12.8396 8.77917 12.8449C9.06245 12.8495 9.3384 12.7915 9.57776 12.6222H9.57849Z"
        fill="white"
      />
      <path
        d="M8.89176 6.72042L8.03144 6.72042L8.03144 11.3921C8.34938 11.243 8.62777 11.046 8.89176 10.8239L8.89176 6.72042Z"
        fill="white"
      />
      <path
        d="M7.88446 6.72142L7.02413 6.72142L7.02413 11.6598C7.34568 11.6309 7.62837 11.5578 7.88446 11.4528L7.88446 6.72142Z"
        fill="white"
      />
      <path
        d="M7.10579 11.888C7.27575 12.0822 7.50261 12.2205 7.75354 12.2545C7.84691 12.2673 7.94247 12.2673 8.03729 12.253C9.43127 12.0459 10.2337 10.2664 11.8304 9.81676V9.04902C11.8049 9.05431 11.7808 9.06035 11.7582 9.06564C9.67199 9.58477 9.18545 11.6099 7.01898 11.7883L7.10579 11.888Z"
        fill="white"
      />
    </svg>